<?xml version="1.0" encoding="UTF-8" standalone="no"?>
<svg width="101px" height="27px" viewBox="0 0 101 27" version="1.1" xmlns="http://www.w3.org/2000/svg" xmlns:xlink="http://www.w3.org/1999/xlink" xmlns:sketch="http://www.bohemiancoding.com/sketch/ns">
    <!-- Generator: Sketch 3.2.2 (9983) - http://www.bohemiancoding.com/sketch -->
    <title>logo 3</title>
    <desc>Created with Sketch.</desc>
    <defs></defs>
    <g id="Page-1" stroke="none" stroke-width="1" fill="none" fill-rule="evenodd" sketch:type="MSPage">
        <g id="reepay-web-v1-desktop-home-slide1" sketch:type="MSArtboardGroup" transform="translate(-30.000000, -18.000000)">
            <g id="logo-+-menu" sketch:type="MSLayerGroup" transform="translate(-8.000000, -1.000000)">
                <g id="logo-3" transform="translate(38.000000, 19.000000)" sketch:type="MSShapeGroup">
                    <path d="M42.7932488,19.1718026 L42.7932488,8.54948684 L45.0544694,8.54948684 L45.0544694,9.82403947 C46.2398738,9.04584211 47.4268217,8.54322368 48.6137696,8.31618421 L48.6137696,10.6319868 C47.4129303,10.8731184 46.3865059,11.1847105 45.53604,11.5667632 L45.0745349,11.7577895 L45.0745349,19.1718026 L42.7932488,19.1718026" id="Fill-1" fill="#234D85"></path>
                    <path d="M57.2635172,17.2599737 L57.8500455,17.1957763 L57.8917198,18.9165789 C56.3003762,19.2406974 54.8896215,19.4051053 53.6625427,19.4051053 C52.1128734,19.4051053 50.9984698,18.9729474 50.3224189,18.1086316 C49.6448245,17.2458816 49.306799,15.8648553 49.306799,13.9671184 C49.306799,10.1998289 50.8209679,8.31618421 53.8508491,8.31618421 C56.7819467,8.31618421 58.2482672,9.93834211 58.2482672,13.1810921 L58.1016352,14.8376974 L51.609694,14.8376974 C51.6235854,15.7161053 51.8118918,16.3596447 52.1761567,16.7714474 C52.5373346,17.1816842 53.2149291,17.3868026 54.2058531,17.3868026 C55.196777,17.3868026 56.2170274,17.3445263 57.2635172,17.2599737 L57.2635172,17.2599737 Z M56.0071121,13.0526974 C56.0071121,12.0051842 55.8435016,11.2723947 55.5147371,10.8543289 C55.1875161,10.4378289 54.6318578,10.2280132 53.8508491,10.2280132 C53.068297,10.2280132 52.5002908,10.4487895 52.1437433,10.8872105 C51.7871959,11.3256316 51.60352,12.0474605 51.5896285,13.0526974 L56.0071121,13.0526974 L56.0071121,13.0526974 Z" id="Fill-2" fill="#234D85"></path>
                    <path d="M67.4428687,17.2599737 L68.0278534,17.1957763 L68.0710713,18.9165789 C66.4797277,19.2406974 65.068973,19.4051053 63.8403507,19.4051053 C62.2906814,19.4051053 61.1778213,18.9729474 60.5002269,18.1086316 C59.8241759,17.2458816 59.484607,15.8648553 59.484607,13.9671184 C59.484607,10.1998289 61.0003194,8.31618421 64.0286571,8.31618421 C66.9612982,8.31618421 68.4260752,9.93834211 68.4260752,13.1810921 L68.2794432,14.8376974 L61.7890455,14.8376974 C61.8029369,15.7161053 61.9912433,16.3596447 62.3539647,16.7714474 C62.7166861,17.1816842 63.3942806,17.3868026 64.3852045,17.3868026 C65.3761285,17.3868026 66.3948354,17.3445263 67.4428687,17.2599737 L67.4428687,17.2599737 Z M66.1864636,13.0526974 C66.1864636,12.0051842 66.0213096,11.2723947 65.6940886,10.8543289 C65.3653241,10.4378289 64.8112092,10.2280132 64.0286571,10.2280132 C63.2476485,10.2280132 62.6780987,10.4487895 62.3230948,10.8872105 C61.9665474,11.3256316 61.781328,12.0474605 61.7674365,13.0526974 L66.1864636,13.0526974 L66.1864636,13.0526974 Z" id="Fill-3" fill="#234D85"></path>
                    <path d="M70.1671379,23.7376447 L70.1671379,8.54948684 L72.4283585,8.54948684 L72.4283585,9.20868421 C73.3914996,8.61368421 74.2913574,8.31618421 75.1294753,8.31618421 C76.5109036,8.31618421 77.5234365,8.74521053 78.1655306,9.60169737 C78.8076246,10.4581842 79.1286716,11.8955789 79.1286716,13.9138816 C79.1286716,15.9321842 78.7628632,17.3523553 78.029703,18.1728289 C77.2965427,18.9933026 76.0987904,19.4051053 74.4379894,19.4051053 C73.8653527,19.4051053 73.2031932,19.3409079 72.448424,19.2125132 L72.448424,23.7376447 L70.1671379,23.7376447 L70.1671379,23.7376447 Z M74.7312535,10.3767632 C74.075268,10.3767632 73.4192825,10.5255132 72.763297,10.8230132 L72.448424,10.9717632 L72.448424,17.2380526 C73.0071693,17.3523553 73.6214804,17.4071579 74.2913574,17.4071579 C75.240607,17.4071579 75.8965925,17.1315789 76.2593139,16.5804211 C76.6220353,16.0276974 76.8041677,15.0850921 76.8041677,13.7541711 C76.8041677,11.5025658 76.1126818,10.3767632 74.7312535,10.3767632 L74.7312535,10.3767632 Z" id="Fill-4" fill="#234D85"></path>
                    <path d="M88.699886,11.8219868 L88.699886,16.6649737 C88.7137774,16.9765658 88.7940392,17.2067368 88.9406712,17.3539211 C89.0873033,17.5042368 89.3141971,17.59975 89.6213527,17.6420263 L89.5580694,19.4051053 C88.35723,19.4051053 87.4295893,19.1436184 86.7736038,18.6190789 C85.6561132,19.1436184 84.5324487,19.4051053 83.4026101,19.4051053 C81.3219784,19.4051053 80.2816626,18.2793026 80.2816626,16.0276974 C80.2816626,14.9504342 80.5641223,14.1722368 81.130585,13.6899737 C81.6955043,13.2092763 82.5644922,12.9180395 83.7375486,12.8193947 L86.4386654,12.5860921 L86.4386654,11.8219868 C86.4386654,11.2551711 86.3151857,10.8590263 86.0713135,10.6319868 C85.8274412,10.4049474 85.4678068,10.2922105 84.9939538,10.2922105 C84.10027,10.2922105 82.9827794,10.3485789 81.6430255,10.4613158 L80.9731485,10.5051579 L80.8897998,8.86890789 C82.4101426,8.50094737 83.8100929,8.31618421 85.088107,8.31618421 C86.3645776,8.31618421 87.2860443,8.59646053 87.8509636,9.15544737 C88.4174263,9.716 88.699886,10.6038026 88.699886,11.8219868 L88.699886,11.8219868 Z M84.0092038,14.4556447 C83.0460627,14.5401974 82.5644922,15.071 82.5644922,16.0480526 C82.5644922,17.0251053 82.9904969,17.5136316 83.8425063,17.5136316 C84.5401661,17.5136316 85.2795004,17.4008947 86.0620525,17.1738553 L86.4386654,17.0470263 L86.4386654,14.2223421 L84.0092038,14.4556447 L84.0092038,14.4556447 Z" id="Fill-5" fill="#234D85"></path>
                    <path d="M90.0072265,8.53382895 L92.4999714,8.53382895 L94.6284514,16.4911711 C94.7087132,16.7933684 94.8167578,16.9922237 94.9525854,17.0877368 C95.0868695,17.18325 95.1980012,17.2443158 95.2859804,17.2725 C95.3739596,17.3006842 95.4480474,17.3132105 95.5097872,17.3132105 C95.5699835,17.3132105 95.6687672,17.3069474 95.8030513,17.2928553 L98.2957962,8.53382895 L100.790085,8.53382895 L96.6951916,22.9062105 L96.063902,25.0043684 L93.5742441,25.0043684 L95.2365886,19.4520789 C93.7625505,19.4520789 92.7839745,18.5893289 92.2977735,16.8606974 L90.0072265,8.53382895" id="Fill-6" fill="#234D85"></path>
                    <path d="M29,16 L29,22 L16,22 L18,20 L17,19 L14,22 L14,22 L13,23 L14,24 L14,24 L17,27 L18,26 L16,24 L30,24 C30.4718111,24.0269837 31,23.4766628 31,23 L31,16 L29,16" id="Fill-7" fill="#00A171"></path>
                    <path d="M30,3 L20,3 L21,4 L20,5 L29,5 L29,10 L0,10 L0,23 C0,23.4646202 0.53041532,24 1,24 L11,24 L10,23 L11,22 L2,22 L2,14 L31,14 L31,4 C31,3.53537981 30.4711266,3 30,3" id="Fill-8" fill="#234D85"></path>
                    <path d="M18,4 L17,3 L17,3 L14,0 L13,1 L15,3 L1,3 C0.529728805,3.18222222 0,3.73656566 0,4 L0,8 L2,8 L2,5 L14,5 L13,7 L14,8 L17,5 L17,5 L18,4" id="Fill-9" fill="#00A171"></path>
                </g>
            </g>
        </g>
    </g>
</svg>